<svg xmlns="http://www.w3.org/2000/svg" width="25" height="25" viewBox="0 0 35 30.625">
  <path id="Icon_awesome-briefcase" data-name="Icon awesome-briefcase" d="M21.875,22.969a1.093,1.093,0,0,1-1.094,1.094H14.219a1.093,1.093,0,0,1-1.094-1.094V19.688H0v9.844a3.364,3.364,0,0,0,3.281,3.281H31.719A3.364,3.364,0,0,0,35,29.531V19.688H21.875ZM31.719,8.75H26.25V5.469a3.364,3.364,0,0,0-3.281-3.281H12.031A3.364,3.364,0,0,0,8.75,5.469V8.75H3.281A3.364,3.364,0,0,0,0,12.031V17.5H35V12.031A3.364,3.364,0,0,0,31.719,8.75Zm-9.844,0h-8.75V6.563h8.75Z" transform="translate(0 -2.188)"/>
</svg>
