<svg xmlns="http://www.w3.org/2000/svg" width="25" height="25" viewBox="0 0 30.625 35">
  <path id="Icon_awesome-calendar-check" data-name="Icon awesome-calendar-check" d="M29.8,10.938H.82a.82.82,0,0,1-.82-.82V7.656A3.281,3.281,0,0,1,3.281,4.375H6.563V.82A.82.82,0,0,1,7.383,0h2.734a.82.82,0,0,1,.82.82V4.375h8.75V.82a.82.82,0,0,1,.82-.82h2.734a.82.82,0,0,1,.82.82V4.375h3.281a3.281,3.281,0,0,1,3.281,3.281v2.461A.82.82,0,0,1,29.8,10.938ZM.82,13.125H29.8a.82.82,0,0,1,.82.82V31.719A3.281,3.281,0,0,1,27.344,35H3.281A3.281,3.281,0,0,1,0,31.719V13.945A.82.82,0,0,1,.82,13.125ZM23.6,19.684l-1.926-1.941a.82.82,0,0,0-1.16,0l-7.249,7.19L10.127,21.76a.82.82,0,0,0-1.16,0L7.025,23.681a.82.82,0,0,0,0,1.16l5.647,5.692a.82.82,0,0,0,1.16,0L23.6,20.844a.82.82,0,0,0,0-1.16Z"/>
</svg>
