<svg id="Logo" xmlns="http://www.w3.org/2000/svg" width="62.155" height="62.206" viewBox="0 0 62.155 62.206">
  <path id="Trazado_1756" data-name="Trazado 1756" d="M192.466,60.174a31.213,31.213,0,0,0-28.208,27.079,41.315,41.315,0,0,0,.19,9.371,31.577,31.577,0,0,0,6.705,14.485A40.44,40.44,0,0,0,175.7,115.6a31.5,31.5,0,0,0,15.355,6.528,42.189,42.189,0,0,0,9.194-.136,31.093,31.093,0,0,0,17.3-9.167,29.9,29.9,0,0,0,5.644-8.12,31.276,31.276,0,0,0-.014-26.943,29.761,29.761,0,0,0-5.794-8.256,30.9,30.9,0,0,0-18.388-9.181A41.915,41.915,0,0,0,192.466,60.174Zm6.6,3.482a28.385,28.385,0,0,1,12.771,5.318,27.787,27.787,0,0,1,11.085,23.094,27.468,27.468,0,0,1-7.807,18.538l-1.088,1.142-1.088-.544c-1.129-.571-3.767-2.081-5.046-2.883a2.528,2.528,0,0,0-1.578-.49,2.206,2.206,0,0,1-2.339-1.537,7.894,7.894,0,0,0-1.061-2.72,3.017,3.017,0,0,1-.517-1.21,7.646,7.646,0,0,1,.544-.9,15.456,15.456,0,0,0,2.067-4.815c.136-.53.177-.571.585-.571a1.349,1.349,0,0,0,.68-.177,21.943,21.943,0,0,0,1.591-5.264,7.976,7.976,0,0,0-.326-3.387,33.232,33.232,0,0,1-.394-3.509c-.15-2.122-.136-2.53.014-2.666.286-.231.136-.979-.653-3.414a24.781,24.781,0,0,1-.68-2.394c0-.816-1.088-2.217-2.353-3.019a9,9,0,0,1-1.21-.884c-2.2-1.931-8.269-2.829-11.887-1.741a3.211,3.211,0,0,0-1.646.979c-.068.177.762.258,4.311.449a13.921,13.921,0,0,1,5.576,1.034,5.052,5.052,0,0,1,2.421,2.026c.408.517.979,1.2,1.251,1.5.721.775.789,1.17.286,1.809a4.654,4.654,0,0,0-.68,1.646c-.462,1.863-.394,2.135.626,2.652a1.772,1.772,0,0,1,.666.639l.218.422-.462-.1a3.983,3.983,0,0,1-1.591-.8c-.544-.408-.925-.435-2.095-.15-.462.109-1.02.231-1.238.272-1.142.231-1.673,1.836-1.523,4.638.109,1.85.041,2.122-.694,2.788-.612.571-.884.68-1.142.449a1.643,1.643,0,0,0-.694-.272.845.845,0,0,0-.857.258c-.571.476-.3.775.694.775.666,0,.748.027.938.408.571,1.115,3.509,1.836,4.91,1.2l.313-.15-.326-.558a13.707,13.707,0,0,1-.762-2.013c-.435-1.442-.435-1.469-.19-1.755.231-.245.354-.272,1.224-.19a3.278,3.278,0,0,0,1.564-.122c.789-.272.993-.272,1.36.027s.272.585-.653,1.836a7.338,7.338,0,0,0-.925,1.632,4.77,4.77,0,0,1-.993,1.918.814.814,0,0,0-.286.449,3.912,3.912,0,0,0,.762,1.006c.762.83,1.36,1.9,1.211,2.163-.041.082-.34.136-.639.136-.5,0-.626-.082-1.319-.816a4.192,4.192,0,0,0-2.19-1.36c-1.85-.694-2.6-.87-3.455-.775a5.74,5.74,0,0,0-2.258.843c0,.163.721.34,2.258.544,1.8.258,2.421.435,2.094.612a13.446,13.446,0,0,1-1.6.381c-1.918.381-2.829,1.006-2.326,1.6.136.177.354.19,1.088.122a4.2,4.2,0,0,1,1.2,0c.367.109.626.612.83,1.619a2.243,2.243,0,0,0,.571,1.21c.367.381.435.394,1.17.313,1.7-.2,1.7-.218,1.877.394a8.09,8.09,0,0,1,.177,1.809,6.168,6.168,0,0,1-1.9,4.747c-.707.748-.762.843-.5,1.1.286.286,1.074.19,1.727-.245a6.829,6.829,0,0,0,2.027-2.081l.694-.925.15.585c.082.326.286,1.061.462,1.646l.326,1.047-.843,1.333c-.775,1.238-.83,1.36-.83,2.135.014.449.15,1.931.34,3.305a11.228,11.228,0,0,1,.19,2.6,18.005,18.005,0,0,1-4.9.653l-2.19.082-.218-1.414c-.122-.775-.258-1.714-.313-2.081a1.646,1.646,0,0,0-.476-1.074c-.394-.381-.435-.394-1.265-.3a2.6,2.6,0,0,1-2.448-.9c-.612-.53-.639-.6-.408-.762.394-.286.83-.2,1.319.231.571.5.639.5.639.068,0-.952-.721-1.469-2.271-1.646l-.83-.082-.245.789c-.163.5-.34.816-.49.843-.381.068-.721-.612-.721-1.442v-.748l-.748-.19c-1.455-.367-2.38-1.156-2.543-2.163l-.082-.49.83.422c.952.476.979.49.979.245,0-.19-.272-.517-.884-1.034l-.381-.326.653-.245c1.591-.6,1.727-1.7.245-1.972-.381-.068-.68.068-2.258,1.02a51.583,51.583,0,0,1-6.868,3.346l-1.129.462-.734-.911a4.712,4.712,0,0,1-.748-1.074c0-.326.408-.177.993.354.666.612,1.061.83,1.442.83s.367-.354-.041-.612c-.218-.15-.3-.3-.258-.476.1-.34-.762-1.224-1.17-1.224a2.508,2.508,0,0,0-.83.272,4.362,4.362,0,0,1-.6.272,23.836,23.836,0,0,1-2.081-3.468,28.263,28.263,0,0,1-2.707-8.732,32.737,32.737,0,0,1,.286-9.017,28.088,28.088,0,0,1,15.233-19.721A27.6,27.6,0,0,1,199.063,63.656Zm-8.609,51.465c0,.381-.34.816-.639.816s-.857.422-.857.68c0,.068.136.136.3.136.53,0,.789.381.789,1.183,0,.83.19.775-1.564.354a25.408,25.408,0,0,1-2.679-.816c-.177-.1.6-1.142.993-1.346.544-.272,1.034-.245,1.21.082.258.476.762.34,1.224-.354C189.692,115.19,190.453,114.727,190.453,115.122Zm2.04,2.516q.857.449.449,1.02c-.2.286-.286.3-1.238.218a6.675,6.675,0,0,1-1.088-.136c-.1-.1.517-1.02.762-1.17A1.076,1.076,0,0,1,192.493,117.638Z" transform="translate(-164.078 -60.107)" fill="#585858"/>
  <path id="Trazado_1757" data-name="Trazado 1757" d="M339.657,217.818c-.34.34-.258.6.258.816a1.81,1.81,0,0,1,.476.245,2.82,2.82,0,0,1-.775.286,4.491,4.491,0,0,0-2.135,1.238.712.712,0,0,0,.068.49c.122.245.231.258.938.177a1.979,1.979,0,0,1,1.1.082,4.309,4.309,0,0,0,2.979-.3c.966-.367,1.142-.49,1.306-.884.258-.626.245-1.333-.041-1.578a8.714,8.714,0,0,0-3.2-.789C340.119,217.6,339.793,217.668,339.657,217.818Z" transform="translate(-313.881 -196.18)" fill="#585858"/>
  <path id="Trazado_1758" data-name="Trazado 1758" d="M321.1,310.056a.49.49,0,0,0-.1.326,13.435,13.435,0,0,0,.938,2.788,20.52,20.52,0,0,0,2.775,2.775c.19,0,.177-.68-.068-1.931-.3-1.6-.53-2.081-.966-1.958a2.592,2.592,0,0,1-1.755-.49,1.24,1.24,0,0,1-.245-.721C321.68,310.423,321.272,309.866,321.1,310.056Z" transform="translate(-299.657 -276.028)" fill="#585858"/>
  <path id="Trazado_1759" data-name="Trazado 1759" d="M257.1,381.919c-.462.245-.462.286-.027.748l.354.367-.313.2c-.666.422-.925.422-1.333-.027l-.394-.422-.9.326a8.413,8.413,0,0,0-1.238.544l-.354.231.286.394c.666.925,1.55,1.211,2.176.707l.313-.258-.422-.286a2.946,2.946,0,0,0-.843-.394l-.449-.082.367-.19c.313-.163.422-.15.993.163a3.215,3.215,0,0,0,2.244.231,9.041,9.041,0,0,0,2.231-1.714.469.469,0,0,0-.136-.462c-.177-.19-.272-.19-.462-.054-.449.313-.571.326-.925.041A.845.845,0,0,0,257.1,381.919Z" transform="translate(-240.82 -337.976)" fill="#585858"/>
  <path id="Trazado_1760" data-name="Trazado 1760" d="M323,399.725a9.247,9.247,0,0,0,.34,1.238,7.009,7.009,0,0,1,.34,1.659c0,.53.041.612.286.612.707,0,.979-.476.653-1.129-.136-.272-.122-.258.231.054a13.532,13.532,0,0,0,1.387,1.007,3.573,3.573,0,0,1,1.224,1.1c.245.53.5.6.612.163.082-.272.109-.272.394-.082a3.975,3.975,0,0,1,1.088,1.931c.245.721.789,1.442,1.061,1.442.2,0,.272-1.36.122-2.339-.177-1.17-.326-1.4-.544-.843l-.15.395-.136-.34c-.2-.544-.53-.816-1.537-1.319a15.051,15.051,0,0,1-3.822-2.693C323.544,399.63,323,399.331,323,399.725Z" transform="translate(-301.385 -353.388)" fill="#585858"/>
</svg>
