<svg id="eq3iqcr6kc3p1" xmlns="http://www.w3.org/2000/svg" xmlns:xlink="http://www.w3.org/1999/xlink" viewBox="0 0 62.155000 62.206000" shape-rendering="geometricPrecision" text-rendering="geometricPrecision"><style><![CDATA[#eq3iqcr6kc3p2_ts {animation: eq3iqcr6kc3p2_ts__ts 1500ms linear 1 normal forwards}@keyframes eq3iqcr6kc3p2_ts__ts { 0% {transform: translate(31.077500px,31.102485px) scale(0.500000,0.500000)} 100% {transform: translate(31.077500px,31.102485px) scale(1,1)} }#eq3iqcr6kc3p2 {animation: eq3iqcr6kc3p2_c_o 1500ms linear 1 normal forwards}@keyframes eq3iqcr6kc3p2_c_o { 0% {opacity: 0} 100% {opacity: 1} }]]></style><g id="eq3iqcr6kc3p2_ts" transform="translate(31.077500,31.102485) scale(0.500000,0.500000)"><g id="eq3iqcr6kc3p2" transform="translate(-31.077500,-31.102485)" opacity="0"><path id="eq3iqcr6kc3p3" d="M323,399.725000C323.084515,400.145045,323.198122,400.558709,323.340000,400.963000C323.519969,401.500226,323.634135,402.057291,323.680000,402.622000C323.680000,403.152000,323.721000,403.234000,323.966000,403.234000C324.673000,403.234000,324.945000,402.758000,324.619000,402.105000C324.483000,401.833000,324.497000,401.847000,324.850000,402.159000C325.290589,402.523639,325.753852,402.859980,326.237000,403.166000C326.725032,403.432434,327.144148,403.809090,327.461000,404.266000C327.706000,404.796000,327.961000,404.866000,328.073000,404.429000C328.155000,404.157000,328.182000,404.157000,328.467000,404.347000C329.005412,404.874494,329.382749,405.544197,329.555000,406.278000C329.800000,406.999000,330.344000,407.720000,330.616000,407.720000C330.816000,407.720000,330.888000,406.360000,330.738000,405.381000C330.561000,404.211000,330.412000,403.981000,330.194000,404.538000L330.044000,404.933000L329.908000,404.593000C329.708000,404.049000,329.378000,403.777000,328.371000,403.274000C326.964500,402.580900,325.674945,401.672273,324.549000,400.581000C323.544000,399.630000,323,399.331000,323,399.725000Z" transform="matrix(1 0 0 1 -301.38500000000005 -353.38799999999992)" fill="rgb(123,237,141)" fill-opacity="0.75" stroke="none" stroke-width="1"/><path id="eq3iqcr6kc3p4" d="M257.100000,381.919000C256.638000,382.164000,256.638000,382.205000,257.073000,382.667000L257.427000,383.034000L257.114000,383.234000C256.448000,383.656000,256.189000,383.656000,255.781000,383.207000L255.387000,382.785000L254.487000,383.111000C254.060405,383.258821,253.646401,383.440742,253.249000,383.655000L252.895000,383.886000L253.181000,384.280000C253.847000,385.205000,254.731000,385.491000,255.357000,384.987000L255.670000,384.729000L255.248000,384.443000C254.989647,384.267837,254.705098,384.134845,254.405000,384.049000L253.956000,383.967000L254.323000,383.777000C254.636000,383.614000,254.745000,383.627000,255.316000,383.940000C256.011547,384.285510,256.808652,384.367565,257.560000,384.171000C258.388549,383.719583,259.141328,383.141249,259.791000,382.457000C259.834234,382.289705,259.781978,382.112189,259.655000,381.995000C259.478000,381.805000,259.383000,381.805000,259.193000,381.941000C258.744000,382.254000,258.622000,382.267000,258.268000,381.982000C257.958463,381.651380,257.443303,381.623594,257.100000,381.919000Z" transform="matrix(1 0 0 1 -240.82000000000008 -337.97600000000000)" fill="rgb(123,237,141)" fill-opacity="0.75" stroke="none" stroke-width="1"/><path id="eq3iqcr6kc3p5" d="M192.466000,60.174000C177.873946,61.462729,166.141367,72.725723,164.258000,87.253000C163.965656,90.373761,164.029399,93.517654,164.448000,96.624000C165.405668,101.946858,167.714427,106.934535,171.153000,111.109000C172.547819,112.723608,174.068232,114.225296,175.700000,115.600000C180.138516,119.116635,185.442939,121.371749,191.055000,122.128000C194.115469,122.417768,197.198441,122.372164,200.249000,121.992000C206.852356,120.879009,212.919940,117.663890,217.549000,112.825000C219.867984,110.450358,221.775398,107.706169,223.193000,104.705000C227.255245,96.182243,227.250100,86.280531,223.179000,77.762000C221.731467,74.700389,219.772000,71.908300,217.385000,69.506000C212.482796,64.437193,205.994360,61.197562,198.997000,60.325000C196.827244,60.104835,194.643613,60.054348,192.466000,60.174000ZM199.066000,63.656000C203.696436,64.348296,208.083730,66.175219,211.837000,68.974000C219.071614,74.408091,223.207375,83.024353,222.922000,92.068000C222.757228,99.012176,219.967677,105.636065,215.115000,110.606000L214.027000,111.748000L212.939000,111.204000C211.810000,110.633000,209.172000,109.123000,207.893000,108.321000C207.436734,107.985525,206.881036,107.812970,206.315000,107.831000C205.268529,107.942151,204.289255,107.298652,203.976000,106.294000C203.794534,105.329249,203.434715,104.406809,202.915000,103.574000C202.655740,103.213617,202.479209,102.800459,202.398000,102.364000C202.558463,102.051870,202.740226,101.751159,202.942000,101.464000C203.900026,99.988342,204.599069,98.359946,205.009000,96.649000C205.145000,96.119000,205.186000,96.078000,205.594000,96.078000C205.832323,96.080105,206.066949,96.019033,206.274000,95.901000C207.022975,94.219993,207.557505,92.451441,207.865000,90.637000C208.001224,89.497694,207.890027,88.342408,207.539000,87.250000C207.345574,86.088142,207.214055,84.916822,207.145000,83.741000C206.995000,81.619000,207.009000,81.211000,207.159000,81.075000C207.445000,80.844000,207.295000,80.096000,206.506000,77.661000C206.239380,76.874893,206.012428,76.075885,205.826000,75.267000C205.826000,74.451000,204.738000,73.050000,203.473000,72.248000C203.045794,71.987482,202.641058,71.691791,202.263000,71.364000C200.063000,69.433000,193.994000,68.535000,190.376000,69.623000C189.740523,69.774306,189.166310,70.115834,188.730000,70.602000C188.662000,70.779000,189.492000,70.860000,193.041000,71.051000C194.950926,71.009418,196.848970,71.361387,198.617000,72.085000C199.619699,72.484383,200.468136,73.194393,201.038000,74.111000C201.446000,74.628000,202.017000,75.311000,202.289000,75.611000C203.010000,76.386000,203.078000,76.781000,202.575000,77.420000C202.244490,77.919778,202.013596,78.478676,201.895000,79.066000C201.433000,80.929000,201.501000,81.201000,202.521000,81.718000C202.795548,81.868429,203.025344,82.088909,203.187000,82.357000L203.405000,82.779000L202.943000,82.679000C202.359086,82.535827,201.815159,82.262325,201.352000,81.879000C200.808000,81.471000,200.427000,81.444000,199.257000,81.729000C198.795000,81.838000,198.237000,81.960000,198.019000,82.001000C196.877000,82.232000,196.346000,83.837000,196.496000,86.639000C196.605000,88.489000,196.537000,88.761000,195.802000,89.427000C195.190000,89.998000,194.918000,90.107000,194.660000,89.876000C194.452560,89.733362,194.215117,89.640300,193.966000,89.604000C193.654503,89.519235,193.321930,89.619356,193.109000,89.862000C192.538000,90.338000,192.809000,90.637000,193.803000,90.637000C194.469000,90.637000,194.551000,90.664000,194.741000,91.045000C195.312000,92.160000,198.250000,92.881000,199.651000,92.245000L199.964000,92.095000L199.638000,91.537000C199.331628,90.887011,199.076843,90.213936,198.876000,89.524000C198.441000,88.082000,198.441000,88.055000,198.686000,87.769000C198.917000,87.524000,199.040000,87.497000,199.910000,87.579000C200.433524,87.665519,200.970225,87.623653,201.474000,87.457000C202.263000,87.185000,202.467000,87.185000,202.834000,87.484000C203.201000,87.783000,203.106000,88.069000,202.181000,89.320000C201.804115,89.822186,201.493242,90.370666,201.256000,90.952000C201.075999,91.658847,200.736292,92.314998,200.263000,92.870000C200.120037,92.983382,200.019315,93.141509,199.977000,93.319000C200.174880,93.693364,200.432228,94.033117,200.739000,94.325000C201.501000,95.155000,202.099000,96.225000,201.950000,96.488000C201.909000,96.570000,201.610000,96.624000,201.311000,96.624000C200.811000,96.624000,200.685000,96.542000,199.992000,95.808000C199.422974,95.135887,198.656730,94.660046,197.802000,94.448000C195.952000,93.754000,195.202000,93.578000,194.347000,93.673000C193.543155,93.791030,192.773524,94.078363,192.089000,94.516000C192.089000,94.679000,192.810000,94.856000,194.347000,95.060000C196.147000,95.318000,196.768000,95.495000,196.441000,95.672000C195.915941,95.831531,195.381608,95.958769,194.841000,96.053000C192.923000,96.434000,192.012000,97.059000,192.515000,97.653000C192.651000,97.830000,192.869000,97.843000,193.603000,97.775000C194.000938,97.717563,194.405062,97.717563,194.803000,97.775000C195.170000,97.884000,195.429000,98.387000,195.633000,99.394000C195.695805,99.846030,195.895002,100.268148,196.204000,100.604000C196.571000,100.985000,196.639000,100.998000,197.374000,100.917000C199.074000,100.717000,199.074000,100.699000,199.251000,101.311000C199.377768,101.905436,199.437143,102.512266,199.428000,103.120000C199.511233,104.902691,198.818252,106.634050,197.528000,107.867000C196.821000,108.615000,196.766000,108.710000,197.028000,108.967000C197.314000,109.253000,198.102000,109.157000,198.755000,108.722000C199.572097,108.181739,200.263403,107.472016,200.782000,106.641000L201.476000,105.716000L201.626000,106.301000C201.708000,106.627000,201.912000,107.362000,202.088000,107.947000L202.414000,108.994000L201.571000,110.327000C200.796000,111.565000,200.741000,111.687000,200.741000,112.462000C200.755000,112.911000,200.891000,114.393000,201.081000,115.767000C201.245072,116.623349,201.308835,117.495896,201.271000,118.367000C199.675458,118.808916,198.026588,119.028653,196.371000,119.020000L194.181000,119.102000L193.963000,117.688000C193.841000,116.913000,193.705000,115.974000,193.650000,115.607000C193.628836,115.202638,193.459367,114.820266,193.174000,114.533000C192.780000,114.152000,192.739000,114.139000,191.909000,114.233000C190.990659,114.393583,190.056631,114.050190,189.461000,113.333000C188.849000,112.803000,188.822000,112.733000,189.053000,112.571000C189.447000,112.285000,189.883000,112.371000,190.372000,112.802000C190.943000,113.302000,191.011000,113.302000,191.011000,112.870000C191.011000,111.918000,190.290000,111.401000,188.740000,111.224000L187.910000,111.142000L187.665000,111.931000C187.502000,112.431000,187.325000,112.747000,187.175000,112.774000C186.794000,112.842000,186.454000,112.162000,186.454000,111.332000L186.454000,110.584000L185.706000,110.394000C184.251000,110.027000,183.326000,109.238000,183.163000,108.231000L183.081000,107.741000L183.911000,108.163000C184.863000,108.639000,184.890000,108.653000,184.890000,108.408000C184.890000,108.218000,184.618000,107.891000,184.006000,107.374000L183.625000,107.048000L184.278000,106.803000C185.869000,106.203000,186.005000,105.103000,184.523000,104.831000C184.142000,104.763000,183.843000,104.899000,182.265000,105.851000C180.061521,107.134564,177.765893,108.252964,175.397000,109.197000L174.268000,109.659000L173.534000,108.748000C173.235919,108.426539,172.984158,108.065053,172.786000,107.674000C172.786000,107.348000,173.194000,107.497000,173.779000,108.028000C174.445000,108.640000,174.840000,108.858000,175.221000,108.858000C175.602000,108.858000,175.588000,108.504000,175.180000,108.246000C174.962000,108.096000,174.880000,107.946000,174.922000,107.770000C175.022000,107.430000,174.160000,106.546000,173.752000,106.546000C173.461554,106.587422,173.180628,106.679485,172.922000,106.818000C172.729142,106.923661,172.528570,107.014587,172.322000,107.090000C171.531335,105.995044,170.835163,104.834869,170.241000,103.622000C168.870783,100.877522,167.956492,97.928282,167.534000,94.890000C167.212747,91.885538,167.308994,88.851065,167.820000,85.873000C169.544204,77.283410,175.177616,69.990263,183.053000,66.152000C188.019745,63.736932,193.596804,62.867455,199.063000,63.656000ZM190.457000,115.121000C190.457000,115.502000,190.117000,115.937000,189.818000,115.937000C189.519000,115.937000,188.961000,116.359000,188.961000,116.617000C188.961000,116.685000,189.097000,116.753000,189.261000,116.753000C189.791000,116.753000,190.050000,117.134000,190.050000,117.936000C190.050000,118.766000,190.240000,118.711000,188.486000,118.290000C187.578678,118.067458,186.684319,117.795045,185.807000,117.474000C185.630000,117.374000,186.407000,116.332000,186.800000,116.128000C187.344000,115.856000,187.834000,115.883000,188.010000,116.210000C188.268000,116.686000,188.772000,116.550000,189.234000,115.856000C189.692000,115.190000,190.453000,114.727000,190.453000,115.122000ZM192.497000,117.637000Q193.354000,118.086000,192.946000,118.657000C192.746000,118.943000,192.660000,118.957000,191.708000,118.875000C191.342217,118.859580,190.978323,118.814094,190.620000,118.739000C190.520000,118.639000,191.137000,117.719000,191.382000,117.569000C191.736385,117.383774,192.164257,117.410347,192.493000,117.638000Z" transform="matrix(1 0 0 1 -164.07790621999996 -60.11086998999998)" fill="rgb(123,237,141)" fill-opacity="0.75" stroke="none" stroke-width="1"/><path id="eq3iqcr6kc3p6" d="M321.100000,310.056000C321.028712,310.149190,320.993228,310.264866,321,310.382000C321.209680,311.342864,321.524231,312.277800,321.938000,313.170000C322.772220,314.181532,323.701468,315.110780,324.713000,315.945000C324.903000,315.945000,324.890000,315.265000,324.645000,314.014000C324.345000,312.414000,324.115000,311.933000,323.679000,312.056000C323.053977,312.110447,322.430419,311.936348,321.924000,311.566000C321.768733,311.357312,321.683024,311.105081,321.679000,310.845000C321.680000,310.423000,321.272000,309.866000,321.100000,310.056000Z" transform="matrix(1 0 0 1 -299.65699999999998 -276.02800000000002)" fill="rgb(123,237,141)" fill-opacity="0.75" stroke="none" stroke-width="1"/><path id="eq3iqcr6kc3p7" d="M339.657000,217.818000C339.317000,218.158000,339.399000,218.418000,339.915000,218.634000C340.084934,218.691621,340.245355,218.774190,340.391000,218.879000C340.148106,219.011860,339.886972,219.108227,339.616000,219.165000C338.802685,219.370189,338.063089,219.799050,337.481000,220.403000C337.444373,220.569211,337.468496,220.743044,337.549000,220.893000C337.671000,221.138000,337.780000,221.151000,338.487000,221.070000C338.854028,220.992530,339.235515,221.020968,339.587000,221.152000C340.583937,221.411293,341.640780,221.304864,342.566000,220.852000C343.532000,220.485000,343.708000,220.362000,343.872000,219.968000C344.130000,219.342000,344.117000,218.635000,343.831000,218.390000C342.824234,217.925839,341.738145,217.658050,340.631000,217.601000C340.119000,217.600000,339.793000,217.668000,339.657000,217.818000Z" transform="matrix(1 0 0 1 -313.88099999999986 -196.18000000000001)" fill="rgb(123,237,141)" fill-opacity="0.75" stroke="none" stroke-width="1"/></g></g></svg>