<svg xmlns="http://www.w3.org/2000/svg" width="148.834" height="62.471" viewBox="0 0 148.834 62.471">
  <g id="uleam" transform="translate(-67.953)">
    <g id="Ulema" transform="translate(80.003 0.027)">
      <path id="Trazado_1761" data-name="Trazado 1761" d="M1001.168,68.964c.027,5.712.1,14.376.136,19.245l.082,8.881h7.453l-.068-14.458c-.041-7.943-.109-16.607-.15-19.245l-.082-4.787h-7.44Z" transform="translate(-967.261 -58.6)" fill="#c20e1a"/>
      <path id="Trazado_1762" data-name="Trazado 1762" d="M774.565,91.664c.014,11.71.014,12.1-.258,13.125-.925,3.536-3.21,5.277-6.909,5.277a6.274,6.274,0,0,1-4.855-1.9,6.945,6.945,0,0,1-1.741-3.237c-.286-1.006-.3-1.455-.394-11.724-.054-5.876-.1-11.3-.109-12.078l-.014-1.387H752.3l.054,11.452c.027,6.311.109,12.118.177,12.907a12.224,12.224,0,0,0,3.631,8.052,14.09,14.09,0,0,0,7.535,3.577,27.054,27.054,0,0,0,7.263,0c6.148-1.088,10.228-4.787,11.37-10.35.231-1.142.258-2.067.258-13.506V79.6h-8.038Z" transform="translate(-752.3 -76.744)" fill="#c20e1a"/>
      <path id="Trazado_1763" data-name="Trazado 1763" d="M1083.638,140.911a12.373,12.373,0,0,0-10.4,7.78,12.8,12.8,0,0,0-1.047,5.427,16.161,16.161,0,0,0,1.319,7.82c1.727,3.727,4.665,5.876,9.045,6.637a36.155,36.155,0,0,0,9.82-.286,27.067,27.067,0,0,0,3.55-.925c.054-.054-.245-4.706-.327-4.951-.027-.122-.258-.068-.816.177a17.861,17.861,0,0,1-8.881,1.374,9.194,9.194,0,0,1-4.012-1.863,7.41,7.41,0,0,1-2.312-4.624l-.068-.626,4.379-.082c2.407-.054,6.42-.1,8.908-.1h4.516v-1.061c-.013-9.045-3.591-14.036-10.554-14.716A10.4,10.4,0,0,0,1083.638,140.911Zm3.509,4.883c1.836.87,3.2,3.509,3.224,6.216v.585h-1.66c-.925,0-3.373.041-5.468.1l-3.781.082.1-.87c.367-3.2,1.958-5.576,4.23-6.3A5.43,5.43,0,0,1,1087.147,145.794Z" transform="translate(-1028.664 -129.609)" fill="#c20e1a"/>
      <path id="Trazado_1764" data-name="Trazado 1764" d="M1266.81,140.9a35.326,35.326,0,0,0-5.726,1.21l-1.306.422.082.83c.041.462.109,1.428.149,2.135s.109,1.482.15,1.714l.054.422.884-.462a15.585,15.585,0,0,1,7.154-1.673c2.53,0,4.094.517,5.141,1.714a4.7,4.7,0,0,1,1.061,3.074l.082,1.183h-2.775c-6.107,0-10.01,1.17-12.54,3.754A7.637,7.637,0,0,0,1257.1,161a6.749,6.749,0,0,0,2.2,5.522,8.221,8.221,0,0,0,3.359,1.85,9.134,9.134,0,0,0,3.264.313,8.348,8.348,0,0,0,3.183-.313,9.8,9.8,0,0,0,2.8-1.387,11.834,11.834,0,0,0,2.6-2.625c.054-.462.231,1.36.245,2.448l.013,1.265h7.372l-.081-.381c-.055-.2-.177-4.556-.272-9.684-.2-10.364-.163-10.01-1.2-12.1a8.9,8.9,0,0,0-6.175-4.6A23.234,23.234,0,0,0,1266.81,140.9Zm7.684,15.913c-.014,4.57-2.135,7.195-5.821,7.195a4.981,4.981,0,0,1-3.183-.87,3.808,3.808,0,0,1,.082-5.74c1.591-1.306,3.931-1.891,7.671-1.958l1.251-.014Z" transform="translate(-1188.442 -129.582)" fill="#c20e1a"/>
      <path id="Trazado_1765" data-name="Trazado 1765" d="M1490.661,141.224a11.5,11.5,0,0,0-3.4,1.129,10.069,10.069,0,0,0-3.2,3.047l-.462.789-.408-.816a9.063,9.063,0,0,0-3.142-3.155,8.218,8.218,0,0,0-4.42-.911,10.192,10.192,0,0,0-2.72.245,8.736,8.736,0,0,0-5.005,3.468l-.53.8-.1-.694c-.041-.394-.082-1.319-.082-2.054v-1.346l-3.5.1c-1.931.054-3.522.122-3.55.15s.027.789.095,1.714.177,6.868.231,13.206l.1,11.533h7.453l-.027-8.133c-.013-6.814.014-8.269.19-9.072a5.734,5.734,0,0,1,2.747-4.121,3.166,3.166,0,0,1,1.9-.354,3.5,3.5,0,0,1,1.7.245,4.53,4.53,0,0,1,1.6,1.51c.585,1.129.612,1.482.667,10.908l.068,9.017h7.48l-.054-8.337c-.041-8.269-.041-8.337.258-9.4.775-2.693,2.3-4.067,4.529-4.08a3.348,3.348,0,0,1,3.441,2.067c.585,1.292.639,2.339.639,11.329v8.419h7.481v-9.017c0-9.262-.068-10.663-.558-12.472a7.454,7.454,0,0,0-5.427-5.495A14.172,14.172,0,0,0,1490.661,141.224Z" transform="translate(-1363.875 -129.935)" fill="#c20e1a"/>
    </g>
    <g id="ULEMA-2" data-name="ULEMA" transform="translate(79.935 41.945)">
      <path id="Trazado_1766" data-name="Trazado 1766" d="M1032.053,366.906c-1.265.272-1.918.884-2,1.863-.109,1.292.436,1.727,2.788,2.258,1.945.449,2.476.775,2.476,1.55a1.979,1.979,0,0,1-.15.748,2.643,2.643,0,0,1-2.068.789,3.023,3.023,0,0,1-2.271-.884c-.435-.422-.5-.449-.8-.285l-.327.177.5.544a3.434,3.434,0,0,0,3.074,1.1c1.537-.068,2.258-.435,2.638-1.347a1.766,1.766,0,0,0-.381-2.108c-.463-.462-1.006-.653-2.979-1.074-1.279-.272-1.782-.639-1.755-1.279.041-1.455,2.9-2.013,4.107-.816.34.34.449.381.68.258.381-.2.354-.313-.258-.857A3.8,3.8,0,0,0,1032.053,366.906Z" transform="translate(-991.903 -366.797)"/>
      <path id="Trazado_1767" data-name="Trazado 1767" d="M1406.293,367.354a3.813,3.813,0,0,0-2.87,2.027,6.011,6.011,0,0,0-.122,3.414,3.651,3.651,0,0,0,2.3,2.217,4.565,4.565,0,0,0,3.292-.231c.925-.462,1.129-.721.816-1.02-.177-.19-.259-.19-.463-.054a9.189,9.189,0,0,1-.966.53,2.249,2.249,0,0,1-1.5.272,3.021,3.021,0,0,1-2.965-2.938c-.272-3.006,2.666-4.624,5.291-2.911.354.231.394.231.612,0s.218-.245-.027-.435a5.469,5.469,0,0,0-2.176-.911A6.313,6.313,0,0,0,1406.293,367.354Z" transform="translate(-1314.528 -367.232)"/>
      <path id="Trazado_1768" data-name="Trazado 1768" d="M751.854,370.483c.041,2.652.068,2.938.34,3.455a2.771,2.771,0,0,0,3.006,1.51,2.645,2.645,0,0,0,2.3-1.442c.3-.571.313-.721.313-3.509v-2.9h-.68v2.72c0,3.06-.1,3.468-.979,4.107a2.635,2.635,0,0,1-2.5.027c-.925-.68-.938-.748-.979-3.944l-.041-2.911h-.83Z" transform="translate(-751.8 -367.491)"/>
      <path id="Trazado_1769" data-name="Trazado 1769" d="M807,371.463v3.89h.68l.027-3.006.041-3.006,2.448,3.006a29.193,29.193,0,0,0,2.611,3.006c.136,0,.177-.816.177-3.876V367.6h-.68v6.148l-2.462-3.047c-1.36-1.659-2.557-3.047-2.652-3.074C807.027,367.586,807,368.226,807,371.463Z" transform="translate(-799.492 -367.491)"/>
      <path id="Trazado_1770" data-name="Trazado 1770" d="M862,371.476v3.876h.816V367.6H862Z" transform="translate(-847.012 -367.491)"/>
      <path id="Trazado_1771" data-name="Trazado 1771" d="M874,367.682c0,.041.707,1.809,1.578,3.944,2.095,5.114,1.8,5.1,3.835.136.843-2.054,1.564-3.822,1.6-3.944.068-.163-.014-.218-.326-.218-.394,0-.408.027-1.741,3.332-.748,1.836-1.387,3.332-1.428,3.332s-.68-1.5-1.415-3.332c-1.306-3.237-1.36-3.332-1.727-3.332C874.177,367.6,874,367.627,874,367.682Z" transform="translate(-857.38 -367.491)"/>
      <path id="Trazado_1772" data-name="Trazado 1772" d="M932,371.476v3.876h5.44v-.68h-4.76v-2.856h4.488v-.68H932.68V368.28H937.3v-.68H932Z" transform="translate(-907.491 -367.491)"/>
      <path id="Trazado_1773" data-name="Trazado 1773" d="M980,371.29v3.89h.816v-2.856h1.836l1.36,1.442c1.251,1.333,1.4,1.442,1.809,1.387l.449-.041-1.238-1.36c-1.183-1.292-1.224-1.36-.925-1.469,1.414-.517,1.877-1.088,1.877-2.3a2.344,2.344,0,0,0-1.047-2.162c-.476-.3-.68-.327-2.72-.367L980,367.4Zm4.2-2.938a1.649,1.649,0,0,1,1.02,1.591c-.027,1.306-.694,1.7-2.911,1.7h-1.5v-3.536h1.469A4.079,4.079,0,0,1,984.2,368.352Z" transform="translate(-948.963 -367.318)"/>
      <path id="Trazado_1774" data-name="Trazado 1774" d="M1084,371.476v3.876h.68V367.6H1084Z" transform="translate(-1038.818 -367.491)"/>
      <path id="Trazado_1775" data-name="Trazado 1775" d="M1100,371.49v3.89l2.013-.054c2.271-.054,2.707-.19,3.591-1.17a4.2,4.2,0,0,0-.49-5.767c-.83-.6-1.687-.789-3.509-.789H1100Zm4.162-2.788a3.205,3.205,0,0,1,.68,5.087c-.707.694-1.346.884-2.924.884h-1.238v-6.42l1.4.054A4.163,4.163,0,0,1,1104.162,368.7Z" transform="translate(-1052.642 -367.491)"/>
      <path id="Trazado_1776" data-name="Trazado 1776" d="M1151.914,371.555l-1.714,3.876h.395c.367,0,.449-.082.816-.884l.395-.884h4.489l.394.884c.367.8.435.884.816.884h.408l-.449-.993c-.245-.53-1.02-2.285-1.728-3.863-1.251-2.843-1.292-2.9-1.686-2.883S1153.627,367.733,1151.914,371.555Zm3.061,1.4c-.558.027-1.415.027-1.932,0l-.911-.041.952-2.19.966-2.176.952,2.176.966,2.19Z" transform="translate(-1096.014 -367.57)"/>
      <path id="Trazado_1777" data-name="Trazado 1777" d="M1213,371.3v3.9l2.081-.054c2.271-.054,2.747-.19,3.509-1.02a3.575,3.575,0,0,0,1.006-2.761,3.5,3.5,0,0,0-1.034-2.843c-.83-.843-1.442-1.02-3.618-1.074L1213,367.4Zm3.55-3.047c2.761.6,3.182,4.719.612,5.916a3.9,3.9,0,0,1-2.013.326h-1.333v-6.392h1.02A10.439,10.439,0,0,1,1216.55,368.257Z" transform="translate(-1150.273 -367.318)"/>
      <path id="Trazado_1778" data-name="Trazado 1778" d="M1291,371.476v3.876h5.032v-.68h-4.216V367.6H1291Z" transform="translate(-1217.664 -367.491)"/>
      <path id="Trazado_1779" data-name="Trazado 1779" d="M1332.278,367.771c-.068.177-.83,1.891-1.7,3.835S1329,375.143,1329,375.17a.8.8,0,0,0,.395.054c.354,0,.421-.082.761-.884l.381-.884h4.529l.381.884c.34.789.422.884.775.884a.8.8,0,0,0,.395-.054c0-.041-2.775-6.256-3.264-7.331A.588.588,0,0,0,1332.278,367.771Zm1.537,2.883c.5,1.115.9,2.054.9,2.081s-.857.041-1.918.041a5.383,5.383,0,0,1-1.863-.136,37.185,37.185,0,0,1,1.9-4.107C1332.89,368.587,1333.325,369.539,1333.815,370.654Z" transform="translate(-1250.496 -367.363)"/>
      <path id="Trazado_1780" data-name="Trazado 1780" d="M1390,371.476v3.876h.68V367.6H1390Z" transform="translate(-1303.2 -367.491)"/>
      <path id="Trazado_1781" data-name="Trazado 1781" d="M1454.924,371.464c-.925,2.081-1.7,3.835-1.741,3.89s.15.1.395.068c.408-.041.476-.109.789-.884l.354-.857h4.529l.367.884c.34.8.422.884.775.884.326,0,.381-.041.326-.245-.054-.136-.816-1.863-1.7-3.849C1456.828,366.486,1457.14,366.473,1454.924,371.464Zm3.047-.68c.49,1.129.9,2.095.9,2.135a11.782,11.782,0,0,1-1.9.082c-1.047,0-1.9-.014-1.9-.041s.3-.721.666-1.537.789-1.782.952-2.149.313-.639.34-.612S1457.467,369.642,1457.97,370.784Z" transform="translate(-1357.786 -367.587)"/>
      <path id="Trazado_1782" data-name="Trazado 1782" d="M1740.422,443.375a5.1,5.1,0,0,0-.422.884c0,.054.286.109.653.109.612,0,.666-.027,1.224-.734a3.9,3.9,0,0,0,.571-.884c0-.1-.326-.15-.8-.15h-.8Z" transform="translate(-1605.597 -432.29)"/>
      <path id="Trazado_1783" data-name="Trazado 1783" d="M846.543,458.79A3.853,3.853,0,0,0,844,462.68a3.8,3.8,0,0,0,2.094,3.618,5.255,5.255,0,0,0,3.618.041,3.762,3.762,0,0,0,2.176-3.781,3.2,3.2,0,0,0-.422-1.89,3.512,3.512,0,0,0-3.509-2.067A6.238,6.238,0,0,0,846.543,458.79Zm2.829,1.659a3.485,3.485,0,0,1,1.02,2.081,2.531,2.531,0,0,1-1.768,2.6,2.406,2.406,0,0,1-3.074-2.135,2.78,2.78,0,0,1,1.224-2.652A2.828,2.828,0,0,1,849.372,460.45Z" transform="translate(-831.46 -446.114)"/>
      <path id="Trazado_1784" data-name="Trazado 1784" d="M1242.825,458.8c-3.142.966-3.7,5.78-.857,7.453.6.354.762.381,2.081.381a3.694,3.694,0,0,0,2.108-.34c1.7-.884,2.435-3.441,1.55-5.427a3.672,3.672,0,0,0-3.631-2.176A6.267,6.267,0,0,0,1242.825,458.8Zm2.707,1.741a2.911,2.911,0,0,1,.068,4.243,2.44,2.44,0,0,1-3.713-.979,3.046,3.046,0,0,1,.83-3.264A2.69,2.69,0,0,1,1245.531,460.545Z" transform="translate(-1173.705 -446.196)"/>
      <path id="Trazado_1785" data-name="Trazado 1785" d="M752,463.476v3.876h5.849v-1.5h-4.216v-1.632h4.08v-1.5h-4.08V461.1h4.216v-1.5H752Z" transform="translate(-751.973 -446.978)"/>
      <path id="Trazado_1786" data-name="Trazado 1786" d="M802,463.476v3.876h5.44v-1.5H803.5V459.6H802Z" transform="translate(-795.172 -446.978)"/>
      <path id="Trazado_1787" data-name="Trazado 1787" d="M901,459.7c0,.068.68,1.115,1.5,2.353l1.5,2.244v3.06h1.5v-3.087l1.564-2.258c.857-1.251,1.564-2.312,1.564-2.339a3.3,3.3,0,0,0-.952-.068H906.7l-.9,1.387c-.49.775-.939,1.455-.993,1.51a4.773,4.773,0,0,1-1.02-1.387l-.911-1.51h-.939A2.36,2.36,0,0,0,901,459.7Z" transform="translate(-880.708 -446.978)"/>
      <path id="Trazado_1788" data-name="Trazado 1788" d="M971.018,463.281c-.925,2.081-1.7,3.822-1.727,3.876s.34.109.816.109h.871l.313-.68.313-.68h3.917l.286.68.286.68h.857a2.754,2.754,0,0,0,.87-.068c0-.041-.762-1.768-1.687-3.836l-1.687-3.781-.87-.041-.87-.041Zm3.2-.367a9.037,9.037,0,0,1,.557,1.455,9.558,9.558,0,0,1-1.265.014l-1.224-.041.626-1.455c.34-.789.639-1.428.653-1.414S973.874,462.139,974.215,462.914Z" transform="translate(-939.709 -446.892)"/>
      <path id="Trazado_1789" data-name="Trazado 1789" d="M1036,463.476v3.876h5.44v-1.5h-3.808V459.6H1036Z" transform="translate(-997.346 -446.978)"/>
      <path id="Trazado_1790" data-name="Trazado 1790" d="M1082,463.476v3.876h1.632V464.5h3.808v-1.36h-3.808V461.1h3.944v-1.5H1082Z" transform="translate(-1037.09 -446.978)"/>
      <path id="Trazado_1791" data-name="Trazado 1791" d="M1125.032,463.281c-.925,2.081-1.714,3.822-1.741,3.876s.34.109.83.109H1125l.3-.68.286-.68h3.944l.286.68.285.68h.871c.761,0,.857-.027.789-.245-.041-.122-.8-1.85-1.7-3.835l-1.618-3.6-.87-.041-.87-.041Zm3.182-.394c.34.762.612,1.428.612,1.455a5.818,5.818,0,0,1-1.279.068h-1.278l.626-1.483c.354-.816.653-1.469.667-1.455S1127.874,462.125,1128.214,462.887Z" transform="translate(-1072.764 -446.892)"/>
      <path id="Trazado_1792" data-name="Trazado 1792" d="M1189,463.29v3.89h1.632V464.6h.6c.571,0,.612.027,1.7,1.292l1.129,1.292H1195c.517,0,.938-.041.938-.109a13.106,13.106,0,0,0-1.088-1.319l-1.075-1.224.367-.19a2.349,2.349,0,0,0,1.387-2.285,2.582,2.582,0,0,0-1.1-2.176c-.571-.381-.6-.381-3.006-.422L1189,459.4Zm4.543-2.067a1.042,1.042,0,0,1,.313,1.224c-.15.571-.721.789-2.067.789h-1.156v-2.312h1.279C1193.053,460.923,1193.244,460.964,1193.543,461.223Z" transform="translate(-1129.537 -446.805)"/>
      <path id="Trazado_1793" data-name="Trazado 1793" d="M1320,463.29v3.89h1.958c2.122,0,2.761-.136,3.577-.762a4.1,4.1,0,0,0,1.21-4.135,3.462,3.462,0,0,0-1.727-2.367c-.721-.408-.775-.422-2.87-.462L1320,459.4Zm4.08-2.067a1.911,1.911,0,0,1,.925.925,2.365,2.365,0,0,1-.925,3.223,2.962,2.962,0,0,1-1.591.313h-.993v-4.76h.993A3.106,3.106,0,0,1,1324.08,461.223Z" transform="translate(-1242.72 -446.805)"/>
      <path id="Trazado_1794" data-name="Trazado 1794" d="M1376,463.476v3.876h5.848v-1.5H1377.5v-1.632h4.216v-1.5H1377.5V461.1h4.352v-1.5H1376Z" transform="translate(-1291.104 -446.978)"/>
      <path id="Trazado_1795" data-name="Trazado 1795" d="M1441,463.39v3.876h1.5l.027-2.652.041-2.666,1.129,1.578c.694.966,1.224,1.564,1.36,1.55a6.114,6.114,0,0,0,1.32-1.5l1.088-1.51.041,2.6.027,2.6h1.632V459.5l-.911.041-.911.041-1.088,1.523c-.612.843-1.129,1.523-1.17,1.537a16.39,16.39,0,0,1-1.2-1.564l-1.129-1.564H1441Z" transform="translate(-1347.263 -446.892)"/>
      <path id="Trazado_1796" data-name="Trazado 1796" d="M1505.659,463.467c-.911,2.067-1.659,3.808-1.659,3.863s.367.109.83.109h.816l.3-.68.3-.68h3.944l.3.68.3.68h.816c.462,0,.829-.041.829-.109s-.748-1.8-1.659-3.863L1509.1,459.7h-1.768Zm3.21-.408c.313.734.571,1.374.571,1.428a3.929,3.929,0,0,1-1.224.1,4,4,0,0,1-1.224-.1,23.7,23.7,0,0,1,1.224-2.761A9.3,9.3,0,0,1,1508.869,463.059Z" transform="translate(-1401.695 -447.064)"/>
      <path id="Trazado_1797" data-name="Trazado 1797" d="M1570,463.376v3.89h1.632l.027-2.435.041-2.435,1.877,2.435c1.877,2.421,1.877,2.435,2.421,2.435h.531v-7.752H1574.9l-.027,2.2-.041,2.217-1.713-2.176-1.7-2.176-.707-.041L1570,459.5Z" transform="translate(-1458.718 -446.892)"/>
      <path id="Trazado_1798" data-name="Trazado 1798" d="M1622.018,463.281c-.925,2.081-1.7,3.822-1.727,3.876s.34.109.816.109h.87l.313-.68.313-.68h3.917l.286.68.285.68h.857c.476,0,.87-.041.87-.109s-.761-1.782-1.686-3.835l-1.687-3.74-.87-.041-.871-.041Zm3.2-.367a9.118,9.118,0,0,1,.558,1.455,9.571,9.571,0,0,1-1.265.014l-1.224-.041.626-1.455c.34-.789.639-1.428.653-1.414S1624.874,462.139,1625.214,462.914Z" transform="translate(-1502.168 -446.892)"/>
      <path id="Trazado_1799" data-name="Trazado 1799" d="M1685,463.476v3.876h2.285a18.46,18.46,0,0,0,2.8-.15,2.136,2.136,0,0,0,.9-3.55c-.286-.272-.34-.408-.218-.476a1.574,1.574,0,0,0,.6-1.551,1.952,1.952,0,0,0-1.2-1.727c-.557-.272-.788-.3-2.883-.3H1685Zm4.461-2.163a.7.7,0,0,1,0,1.156,6.581,6.581,0,0,1-1.632.231l-1.333.068V461.1h1.333A3.153,3.153,0,0,1,1689.461,461.314Zm.041,3.006c.666.394.693,1.088.041,1.374a6.176,6.176,0,0,1-1.687.163h-1.36v-1.768h1.306A3.406,3.406,0,0,1,1689.5,464.32Z" transform="translate(-1558.077 -446.978)"/>
      <path id="Trazado_1800" data-name="Trazado 1800" d="M1739,463.476v3.876h1.632V459.6H1739Z" transform="translate(-1604.733 -446.978)"/>
    </g>
    <rect id="Rectángulo_1531" data-name="Rectángulo 1531" width="3.4" height="62.373" transform="translate(67.953)" fill="#a2c037"/>
  </g>
</svg>
