<svg xmlns="http://www.w3.org/2000/svg" width="25" height="40" viewBox="0 0 47.858 22">
  <path id="Icon_map-university" data-name="Icon map-university" d="M25,27.381c-5.406,0-10,1.572-13,4.036V36H38V31.417C35,28.953,30.406,27.381,25,27.381ZM48.87,25.029,24.936,14,1.012,25.029,5,26.854v2.807c-1,.207-1,.731-1,1.354a1.672,1.672,0,0,0,.354,1.057L2.983,35h4.88L6.507,32.07a1.609,1.609,0,0,0,.415-1.006c0-.622-.922-1.2-.922-1.4V27.323l5,2.246v-.2c3-2.609,8.271-4.265,14-4.265s11,1.656,14,4.265v.2l9.87-4.54Z" transform="translate(-1.012 -14)"/>
</svg>
